<mxfile host="app.diagrams.net" agent="Mozilla/5.0 (Windows NT 10.0; Win64; x64) AppleWebKit/537.36 (KHTML, like Gecko) Chrome/135.0.0.0 Safari/537.36" version="26.2.14">
  <diagram name="Page-1" id="mtkYYn0GG-zA5XdyKjkD">
    <mxGraphModel dx="2084" dy="1054" grid="1" gridSize="10" guides="1" tooltips="1" connect="1" arrows="1" fold="1" page="1" pageScale="1" pageWidth="850" pageHeight="1100" math="0" shadow="0">
      <root>
        <mxCell id="0" />
        <mxCell id="1" parent="0" />
        <mxCell id="LpskhBveUxvyuEz_HKzR-27" value="" style="rounded=0;whiteSpace=wrap;html=1;" vertex="1" parent="1">
          <mxGeometry x="20" y="100" width="280" height="340" as="geometry" />
        </mxCell>
        <mxCell id="LpskhBveUxvyuEz_HKzR-28" style="edgeStyle=orthogonalEdgeStyle;rounded=0;orthogonalLoop=1;jettySize=auto;html=1;exitX=1;exitY=0.5;exitDx=0;exitDy=0;entryX=0;entryY=0.5;entryDx=0;entryDy=0;" edge="1" parent="1" source="LpskhBveUxvyuEz_HKzR-1" target="LpskhBveUxvyuEz_HKzR-2">
          <mxGeometry relative="1" as="geometry" />
        </mxCell>
        <mxCell id="LpskhBveUxvyuEz_HKzR-1" value="Datasets Collection" style="whiteSpace=wrap;strokeWidth=2;" vertex="1" parent="1">
          <mxGeometry x="41" y="20" width="198" height="54" as="geometry" />
        </mxCell>
        <mxCell id="LpskhBveUxvyuEz_HKzR-63" value="Yolo Format" style="edgeStyle=orthogonalEdgeStyle;shape=connector;rounded=0;orthogonalLoop=1;jettySize=auto;html=1;exitX=1;exitY=0.5;exitDx=0;exitDy=0;entryX=0.5;entryY=0;entryDx=0;entryDy=0;strokeColor=default;align=center;verticalAlign=middle;fontFamily=Helvetica;fontSize=11;fontColor=default;labelBackgroundColor=default;endArrow=classic;" edge="1" parent="1" source="LpskhBveUxvyuEz_HKzR-2" target="LpskhBveUxvyuEz_HKzR-4">
          <mxGeometry relative="1" as="geometry" />
        </mxCell>
        <mxCell id="LpskhBveUxvyuEz_HKzR-2" value="Data Preparation" style="whiteSpace=wrap;strokeWidth=2;" vertex="1" parent="1">
          <mxGeometry x="310" y="20" width="181" height="54" as="geometry" />
        </mxCell>
        <mxCell id="LpskhBveUxvyuEz_HKzR-30" style="edgeStyle=orthogonalEdgeStyle;rounded=0;orthogonalLoop=1;jettySize=auto;html=1;exitX=0;exitY=0.5;exitDx=0;exitDy=0;entryX=1;entryY=0.5;entryDx=0;entryDy=0;" edge="1" parent="1" source="LpskhBveUxvyuEz_HKzR-4" target="LpskhBveUxvyuEz_HKzR-5">
          <mxGeometry relative="1" as="geometry" />
        </mxCell>
        <mxCell id="LpskhBveUxvyuEz_HKzR-4" value="Augmentation" style="whiteSpace=wrap;strokeWidth=2;" vertex="1" parent="1">
          <mxGeometry x="605" y="140" width="160" height="54" as="geometry" />
        </mxCell>
        <mxCell id="LpskhBveUxvyuEz_HKzR-31" style="edgeStyle=orthogonalEdgeStyle;rounded=0;orthogonalLoop=1;jettySize=auto;html=1;exitX=0;exitY=0.5;exitDx=0;exitDy=0;entryX=0.5;entryY=0;entryDx=0;entryDy=0;" edge="1" parent="1" source="LpskhBveUxvyuEz_HKzR-5" target="LpskhBveUxvyuEz_HKzR-6">
          <mxGeometry relative="1" as="geometry" />
        </mxCell>
        <mxCell id="LpskhBveUxvyuEz_HKzR-5" value="YOLOv11 Model" style="whiteSpace=wrap;strokeWidth=2;" vertex="1" parent="1">
          <mxGeometry x="350" y="140" width="171" height="54" as="geometry" />
        </mxCell>
        <mxCell id="LpskhBveUxvyuEz_HKzR-6" value="Model&#xa;Backbone: CSPDarkNetv7" style="whiteSpace=wrap;strokeWidth=2;" vertex="1" parent="1">
          <mxGeometry x="41" y="128" width="239" height="78" as="geometry" />
        </mxCell>
        <mxCell id="LpskhBveUxvyuEz_HKzR-7" value="Neck: PANetv2" style="whiteSpace=wrap;strokeWidth=2;" vertex="1" parent="1">
          <mxGeometry x="79" y="260" width="164" height="54" as="geometry" />
        </mxCell>
        <mxCell id="LpskhBveUxvyuEz_HKzR-32" value="" style="edgeStyle=orthogonalEdgeStyle;rounded=0;orthogonalLoop=1;jettySize=auto;html=1;" edge="1" parent="1" source="LpskhBveUxvyuEz_HKzR-8" target="LpskhBveUxvyuEz_HKzR-9">
          <mxGeometry relative="1" as="geometry" />
        </mxCell>
        <mxCell id="LpskhBveUxvyuEz_HKzR-8" value="Head: Detect" style="whiteSpace=wrap;strokeWidth=2;" vertex="1" parent="1">
          <mxGeometry x="84" y="350" width="155" height="54" as="geometry" />
        </mxCell>
        <mxCell id="LpskhBveUxvyuEz_HKzR-58" value="9.4 params" style="edgeStyle=none;shape=connector;curved=1;rounded=0;orthogonalLoop=1;jettySize=auto;html=1;exitX=1;exitY=0.5;exitDx=0;exitDy=0;entryX=0;entryY=0.5;entryDx=0;entryDy=0;strokeColor=default;align=center;verticalAlign=middle;fontFamily=Helvetica;fontSize=11;fontColor=default;labelBackgroundColor=default;startArrow=none;endArrow=block;" edge="1" parent="1" source="LpskhBveUxvyuEz_HKzR-9" target="LpskhBveUxvyuEz_HKzR-11">
          <mxGeometry relative="1" as="geometry" />
        </mxCell>
        <mxCell id="LpskhBveUxvyuEz_HKzR-9" value="Transfer Learning" style="whiteSpace=wrap;strokeWidth=2;" vertex="1" parent="1">
          <mxGeometry x="333" y="350" width="137" height="54" as="geometry" />
        </mxCell>
        <mxCell id="LpskhBveUxvyuEz_HKzR-59" style="edgeStyle=none;shape=connector;curved=1;rounded=0;orthogonalLoop=1;jettySize=auto;html=1;exitX=0.5;exitY=0;exitDx=0;exitDy=0;entryX=0.5;entryY=1;entryDx=0;entryDy=0;strokeColor=default;align=center;verticalAlign=middle;fontFamily=Helvetica;fontSize=11;fontColor=default;labelBackgroundColor=default;startArrow=none;endArrow=block;" edge="1" parent="1" source="LpskhBveUxvyuEz_HKzR-11" target="LpskhBveUxvyuEz_HKzR-12">
          <mxGeometry relative="1" as="geometry" />
        </mxCell>
        <mxCell id="LpskhBveUxvyuEz_HKzR-11" value="ONNX Export" style="whiteSpace=wrap;strokeWidth=2;" vertex="1" parent="1">
          <mxGeometry x="605" y="350" width="152" height="54" as="geometry" />
        </mxCell>
        <mxCell id="LpskhBveUxvyuEz_HKzR-12" value="Optimized Inference" style="whiteSpace=wrap;strokeWidth=2;" vertex="1" parent="1">
          <mxGeometry x="602" y="243" width="158" height="54" as="geometry" />
        </mxCell>
        <mxCell id="LpskhBveUxvyuEz_HKzR-18" value="" style="curved=1;startArrow=none;endArrow=block;exitX=0.5;exitY=1;entryX=0.5;entryY=0;rounded=0;" edge="1" parent="1" source="LpskhBveUxvyuEz_HKzR-6" target="LpskhBveUxvyuEz_HKzR-7">
          <mxGeometry relative="1" as="geometry">
            <Array as="points" />
          </mxGeometry>
        </mxCell>
        <mxCell id="LpskhBveUxvyuEz_HKzR-19" value="" style="curved=1;startArrow=none;endArrow=block;exitX=0.5;exitY=1;entryX=0.5;entryY=0;rounded=0;" edge="1" parent="1" source="LpskhBveUxvyuEz_HKzR-7" target="LpskhBveUxvyuEz_HKzR-8">
          <mxGeometry relative="1" as="geometry">
            <Array as="points" />
          </mxGeometry>
        </mxCell>
      </root>
    </mxGraphModel>
  </diagram>
</mxfile>
